<?xml version="1.0" standalone="no"?>
<!DOCTYPE svg PUBLIC "-//W3C//DTD SVG 20010904//EN"
 "http://www.w3.org/TR/2001/REC-SVG-20010904/DTD/svg10.dtd">
<svg version="1.0" xmlns="http://www.w3.org/2000/svg"
 width="481.000000pt" height="481.000000pt" viewBox="0 0 481.000000 481.000000"
 preserveAspectRatio="xMidYMid meet">
<metadata>
Created by potrace 1.11, written by Peter Selinger 2001-2013
</metadata>
<g transform="translate(0.000000,481.000000) scale(0.100000,-0.100000)"
fill="#000000" stroke="none">
<path d="M2240 4620 c-421 -31 -846 -193 -1178 -450 -927 -716 -1142 -2005
-497 -2975 298 -448 740 -767 1261 -910 211 -58 309 -70 584 -69 223 1 258 3
381 27 717 139 1292 579 1601 1225 162 338 231 699 208 1094 -11 185 -21 244
-65 413 -98 376 -281 699 -554 979 -394 402 -870 623 -1441 666 -146 11 -144
11 -300 0z m67 -77 c-20 -2 -52 -2 -70 0 -17 2 0 4 38 4 39 0 53 -2 32 -4z
m250 0 c-20 -2 -52 -2 -70 0 -17 2 0 4 38 4 39 0 53 -2 32 -4z m-379 -10 c-10
-2 -28 -2 -40 0 -13 2 -5 4 17 4 22 1 32 -1 23 -4z m490 0 c-10 -2 -28 -2 -40
0 -13 2 -5 4 17 4 22 1 32 -1 23 -4z m-575 -10 c-7 -2 -21 -2 -30 0 -10 3 -4
5 12 5 17 0 24 -2 18 -5z m650 0 c-7 -2 -21 -2 -30 0 -10 3 -4 5 12 5 17 0 24
-2 18 -5z m-710 -10 c-7 -2 -19 -2 -25 0 -7 3 -2 5 12 5 14 0 19 -2 13 -5z
m822 -8 c67 -17 36 -18 -40 -1 -33 8 -49 14 -35 14 14 0 48 -6 75 -13z m-872
-2 c-7 -2 -19 -2 -25 0 -7 3 -2 5 12 5 14 0 19 -2 13 -5z m-127 -29 c-49 -13
-91 -23 -93 -20 -5 5 137 44 162 44 11 1 -20 -10 -69 -24z m1139 -5 c14 -6 9
-7 -15 -3 -19 4 -44 11 -55 15 -14 6 -9 7 15 3 19 -4 44 -11 55 -15z m110 -34
c39 -17 21 -18 -25 0 -19 7 -28 14 -20 14 8 0 29 -6 45 -14z m-1425 -14 c-8
-5 -26 -11 -40 -15 -21 -5 -20 -3 5 9 32 15 60 20 35 6z m730 -40 c19 -31 33
-42 68 -51 l43 -11 -29 -37 c-27 -33 -29 -43 -25 -85 l6 -48 -49 19 c-47 19
-50 19 -91 1 l-43 -18 0 50 c0 40 -6 58 -25 81 -30 35 -27 44 20 52 26 5 42
17 62 46 14 22 28 40 32 40 3 0 17 -18 31 -39z m780 23 c23 -9 39 -18 37 -20
-2 -3 -24 4 -48 15 -54 24 -45 27 11 5z m-1715 -73 c-655 -318 -1099 -943
-1186 -1666 -15 -125 -15 -382 0 -500 77 -597 376 -1109 856 -1468 44 -33 115
-80 158 -105 78 -45 104 -66 45 -36 -121 62 -301 197 -437 329 -735 712 -862
1839 -303 2695 94 144 170 236 303 366 117 113 250 218 374 294 75 46 303 160
320 160 6 0 -53 -31 -130 -69z m1886 -7 c609 -305 1025 -866 1151 -1552 29
-158 32 -534 5 -687 -65 -369 -204 -689 -426 -980 -141 -186 -403 -415 -606
-530 -75 -43 -50 -23 49 40 454 285 791 746 926 1271 86 333 86 719 1 1057
-111 438 -372 845 -721 1126 -129 104 -222 164 -375 243 -71 37 -127 68 -122
68 4 0 57 -25 118 -56z m-1477 -59 c22 -16 46 -25 70 -25 34 0 37 -2 29 -22
-9 -28 -9 -75 2 -106 7 -22 6 -23 -29 -17 -30 6 -42 3 -70 -19 -19 -14 -37
-26 -39 -26 -3 0 -8 16 -11 35 -4 22 -18 43 -39 60 l-32 25 32 25 c21 17 35
38 39 60 3 19 8 35 11 35 2 0 19 -11 37 -25z m1036 -15 c7 -26 20 -45 40 -57
17 -9 30 -20 30 -23 0 -3 -13 -14 -30 -23 -20 -12 -31 -28 -36 -52 -8 -47 -17
-50 -53 -19 -26 22 -37 25 -71 19 l-40 -7 15 42 c13 36 13 46 0 76 l-14 34 41
0 c28 0 49 7 70 25 16 14 31 25 33 25 2 0 9 -18 15 -40z m-1400 -243 c0 -23 8
-41 25 -57 32 -30 31 -36 -4 -48 -19 -7 -37 -25 -49 -47 l-18 -37 -25 30 c-16
18 -39 32 -63 36 l-37 7 19 32 c13 22 18 44 15 69 l-5 37 34 -11 c28 -8 41 -7
64 5 41 23 44 21 44 -16z m1752 17 c24 -12 39 -14 69 -6 l39 10 -6 -38 c-5
-30 -2 -45 15 -68 l21 -30 -38 -6 c-24 -5 -46 -18 -64 -39 l-26 -32 -18 38
c-12 25 -28 41 -51 49 l-33 12 25 26 c17 18 25 37 25 63 0 42 0 42 42 21z
m-821 -39 c153 -112 250 -163 421 -220 194 -64 378 -95 596 -98 l144 -2 34
-37 c19 -21 34 -46 34 -57 0 -11 -11 -66 -24 -123 -40 -166 -50 -302 -42 -567
18 -663 19 -718 7 -821 -7 -58 -16 -109 -21 -114 -5 -5 -20 -6 -35 -2 -23 6
-26 11 -21 34 16 71 23 276 15 452 -20 475 -22 690 -5 825 9 72 25 165 36 209
25 98 25 123 1 136 -11 5 -77 10 -148 10 -276 1 -575 70 -813 190 -90 45 -187
107 -209 134 -23 28 -57 18 -138 -40 -237 -172 -626 -284 -984 -284 -170 0
-170 0 -136 -142 14 -56 31 -143 38 -193 17 -120 17 -426 0 -719 -13 -222 -10
-486 5 -543 6 -21 3 -23 -29 -23 l-35 0 -7 58 c-10 75 -8 402 5 622 19 346 10
565 -32 745 -35 150 -35 177 0 216 30 34 31 34 129 36 257 5 396 24 595 82
182 52 319 119 444 216 70 55 120 60 175 20z m-5 -191 c237 -159 591 -267 922
-281 72 -3 132 -7 132 -8 0 -2 -10 -56 -22 -122 -22 -112 -23 -137 -19 -478 7
-605 6 -858 -2 -897 l-8 -38 -61 0 c-59 0 -60 1 -45 18 33 36 13 92 -31 92
-16 0 -33 -5 -40 -12 -18 -18 -15 -75 6 -87 13 -8 0 -10 -50 -11 -55 0 -68 3
-73 18 -7 21 -92 88 -129 102 -15 5 -40 10 -57 10 -24 0 -28 -4 -26 -22 1 -16
-4 -24 -18 -26 -16 -2 -25 9 -42 50 -37 87 -49 160 -109 671 -51 426 -57 492
-45 520 24 60 24 62 -16 90 -38 26 -43 27 -181 27 -78 0 -142 -3 -142 -6 0 -4
5 -24 12 -45 9 -32 8 -63 -7 -164 -10 -69 -19 -124 -21 -122 -2 2 -10 43 -18
92 -12 78 -12 95 1 139 l15 50 -34 28 c-33 27 -34 27 -185 28 -84 0 -153 -3
-153 -7 1 -5 7 -19 15 -33 8 -14 14 -47 15 -75 0 -27 -34 -318 -75 -645 l-74
-595 -36 -71 c-19 -40 -35 -74 -35 -77 0 -2 17 -16 38 -31 l39 -27 155 75 156
74 -4 83 c-3 48 2 123 10 174 l14 90 -2 -70 c-2 -38 -6 -79 -10 -91 -6 -16 0
-26 31 -47 38 -26 44 -27 176 -27 75 0 137 2 137 4 0 2 -7 23 -15 46 -12 35
-13 54 -3 113 l12 72 13 -78 c22 -130 59 -213 128 -284 l61 -63 -76 -16 c-41
-8 -183 -42 -315 -74 -244 -60 -439 -99 -622 -123 -96 -13 -102 -13 -106 4 -7
27 -54 35 -77 14 -11 -10 -20 -24 -20 -32 0 -8 -11 -13 -29 -13 -16 0 -42 -3
-59 -6 -28 -6 -31 -3 -61 61 -18 37 -39 97 -48 134 -8 36 -19 80 -24 96 -5 17
-14 86 -21 155 -9 101 -8 197 7 510 15 324 16 409 6 537 -10 134 -30 273 -47
326 -5 15 4 17 89 17 311 0 744 127 967 284 36 25 66 46 66 46 1 0 32 -21 70
-46z m-351 -434 c-3 -5 -1 -10 4 -10 6 0 11 5 11 10 0 6 10 10 21 10 21 0 21
-1 -3 -20 -15 -12 -25 -30 -25 -45 0 -14 1 -25 3 -25 2 0 28 20 58 45 31 25
60 45 65 45 6 0 9 -21 9 -47 -2 -41 77 -597 102 -718 l8 -40 1 46 c0 25 24
192 51 370 30 187 48 338 45 357 -5 28 -3 32 15 32 12 0 18 -4 15 -10 -3 -5
-1 -10 4 -10 6 0 11 5 11 10 0 6 10 10 21 10 20 0 20 -1 -5 -21 -15 -12 -25
-27 -22 -34 2 -7 -1 -18 -7 -24 -8 -8 -8 -11 2 -11 15 0 91 57 104 77 4 7 14
13 21 13 10 0 12 -11 9 -42 -5 -47 98 -936 122 -1058 27 -132 81 -223 148
-251 l30 -13 -29 -22 c-15 -13 -25 -26 -22 -30 4 -3 21 8 38 25 17 17 36 31
41 31 6 0 21 12 34 26 20 21 27 24 44 14 52 -27 47 -76 -12 -107 -39 -21 -148
-23 -198 -3 -79 32 -143 105 -182 210 -27 73 -45 179 -77 465 -17 149 -32 274
-34 280 -6 20 -99 -583 -99 -637 l1 -58 -83 0 -84 0 6 36 c8 51 -89 668 -99
628 -15 -55 -79 -669 -77 -728 l3 -59 -85 -43 c-106 -54 -111 -55 -93 -6 19
50 167 1234 161 1295 -4 41 -2 47 15 47 11 0 16 -4 13 -10z m65 -20 c-19 -16
-39 -30 -45 -30 -16 0 49 58 65 59 8 0 -1 -13 -20 -29z m380 0 c-19 -16 -39
-30 -45 -30 -16 0 49 58 65 59 8 0 -1 -13 -20 -29z m-1262 -1389 c9 -5 1 -10
-25 -13 -21 -3 -65 -16 -97 -29 -75 -30 -89 -56 -15 -28 28 11 56 18 62 16 16
-5 -33 -31 -93 -50 -31 -9 -65 -24 -75 -33 -19 -15 -19 -15 7 -10 14 3 34 9
45 12 10 4 -4 -10 -31 -30 -29 -21 -61 -36 -77 -36 -15 0 -31 -4 -34 -10 -4
-6 7 -10 24 -10 19 0 31 -5 31 -13 0 -20 -22 -37 -47 -37 -13 0 -23 -4 -23
-10 0 -5 14 -10 30 -10 25 0 30 -4 30 -24 0 -24 -16 -36 -51 -36 -10 0 -19 -5
-19 -11 0 -17 -263 -5 -320 14 l-45 16 73 0 c72 1 100 17 40 23 -32 3 -32 4
20 23 49 19 67 35 40 35 -9 0 -8 4 2 10 8 5 32 10 53 10 39 0 53 19 15 21 -21
1 -21 2 5 12 29 12 37 37 11 37 -14 0 -14 3 -4 15 11 13 8 15 -14 15 -22 0
-106 34 -106 43 0 1 19 1 41 -1 29 -3 40 -1 35 7 -4 6 -16 11 -27 11 -21 0
-106 38 -114 51 -3 4 20 -4 52 -18 40 -18 81 -27 133 -30 77 -5 105 0 275 52
81 24 169 32 193 16z m2234 -26 c91 -16 172 -49 165 -67 -2 -7 -13 -12 -23
-10 -10 1 -40 5 -66 8 -33 5 -48 3 -48 -5 0 -6 7 -11 16 -11 24 0 94 -22 94
-30 0 -3 -16 -4 -36 -2 -26 3 -35 1 -30 -7 4 -6 13 -11 21 -11 8 0 17 -5 21
-11 4 -8 0 -9 -15 -4 -27 8 -28 -11 -1 -25 11 -6 20 -17 20 -24 0 -9 -7 -12
-20 -9 -26 7 -26 -14 0 -22 11 -3 25 -15 30 -26 10 -18 8 -19 -32 -13 -50 8
-47 2 13 -29 54 -28 67 -53 15 -32 -40 17 -56 19 -56 7 0 -4 15 -13 34 -20 18
-7 41 -21 51 -32 18 -20 18 -20 -28 0 -57 25 -147 38 -147 21 0 -6 11 -11 25
-11 33 0 130 -37 145 -55 9 -10 -3 -8 -36 7 -149 65 -737 4 -1278 -133 -152
-38 -377 -89 -393 -89 -5 0 -1 4 7 10 24 15 8 19 -40 10 -25 -4 -71 -11 -102
-15 -57 -6 -80 -24 -35 -26 12 -1 -23 -7 -78 -14 -118 -15 -482 -19 -447 -4
13 5 20 13 17 19 -4 6 -3 41 1 78 l8 67 8 -50 c19 -118 30 -122 65 -24 l23 64
-4 -62 c-4 -60 -3 -63 19 -63 21 0 23 6 29 73 3 39 9 100 12 135 l6 63 -33 -3
c-32 -3 -34 -6 -55 -73 -23 -76 -22 -76 -39 28 -5 33 -9 37 -34 37 -16 0 -31
-6 -34 -14 -3 -7 -9 -66 -13 -130 l-7 -117 -24 6 c-33 8 -26 -17 8 -26 l24 -7
-25 -1 c-33 -1 -132 25 -170 44 -31 16 -32 52 -1 40 9 -4 38 -10 64 -14 62
-10 58 7 -6 26 -52 15 -64 29 -17 20 37 -8 40 10 5 23 -30 11 -33 20 -5 13 26
-7 26 13 0 27 -26 14 -26 30 0 30 28 0 25 14 -5 28 -31 14 -35 46 -5 38 11 -3
29 -9 40 -12 39 -11 19 11 -29 34 -27 12 -51 29 -55 37 -5 14 -2 14 24 0 16
-8 36 -15 45 -15 26 0 16 15 -19 28 -18 7 -41 21 -51 32 -18 20 -18 20 28 0
56 -25 154 -39 143 -22 -4 7 -16 12 -26 12 -29 0 -126 39 -140 55 -17 21 -7
19 36 -7 73 -43 333 -37 710 17 220 32 334 55 577 116 229 58 388 91 395 84 3
-3 -2 -5 -11 -5 -9 0 -17 -4 -17 -8 0 -5 26 -8 58 -9 31 0 79 -6 106 -14 l48
-14 -6 -55 c-3 -30 -8 -92 -12 -137 -6 -79 -6 -83 14 -83 24 0 32 18 32 72 0
53 20 46 34 -13 9 -36 15 -43 31 -41 28 5 29 6 15 61 -10 41 -9 53 3 73 23 36
27 72 13 100 -13 25 -12 26 13 31 34 7 80 43 91 73 7 17 18 24 47 26 63 7 223
-3 305 -17z m-494 -156 c3 -17 -22 -49 -39 -49 -10 0 -12 53 -2 64 12 11 38 2
41 -15z m-1741 -86 c-3 -10 -5 -4 -5 12 0 17 2 24 5 18 2 -7 2 -21 0 -30z
m2808 -107 l50 -14 -73 -1 c-46 -1 -71 -5 -67 -11 3 -5 21 -10 38 -11 l32 -1
-40 -19 c-22 -10 -48 -19 -57 -19 -10 0 -18 -4 -18 -10 0 -5 5 -10 11 -10 5 0
7 -4 4 -10 -3 -5 -21 -10 -40 -10 -37 0 -56 -16 -28 -23 14 -3 12 -6 -9 -15
-16 -6 -28 -15 -28 -19 1 -17 28 -43 44 -43 16 0 96 -37 96 -44 0 -2 -18 -2
-40 1 -23 3 -40 2 -40 -4 0 -6 -35 -13 -77 -16 -45 -3 -120 -19 -178 -37 -107
-34 -237 -51 -249 -31 -5 7 2 11 19 11 35 0 136 36 155 56 14 15 13 15 -10 8
-14 -4 -45 -13 -70 -21 l-45 -13 25 20 c14 11 36 23 50 26 48 11 130 46 130
56 0 8 -13 6 -60 -10 -8 -3 3 9 24 27 22 17 56 34 78 37 45 8 51 24 8 24 -45
0 -36 32 13 44 33 8 27 26 -9 26 -18 0 -24 5 -24 23 0 19 9 27 48 40 58 19
260 16 337 -7z m-695 -94 c0 -36 -94 -141 -204 -227 -45 -35 -176 -123 -292
-195 -243 -154 -305 -197 -396 -278 -68 -61 -109 -79 -150 -66 -13 4 -52 32
-88 63 -127 110 -115 102 -520 357 l-125 79 48 3 c44 3 56 -2 165 -69 227
-140 398 -257 465 -318 37 -33 75 -61 83 -61 9 0 38 20 66 45 82 74 158 127
370 261 261 163 369 245 465 350 81 89 113 104 113 56z m-251 -55 c-82 -78
-150 -126 -424 -298 -99 -63 -215 -142 -258 -177 l-79 -63 -66 54 c-75 60
-160 118 -337 228 l-120 74 60 11 c48 8 62 7 68 -3 13 -21 64 -16 81 9 28 40
589 169 921 212 260 34 244 38 154 -47z m850 -138 c21 -6 48 -20 62 -31 l24
-19 -25 12 c-13 7 -47 20 -75 30 -55 20 -45 26 14 8z m-407 -297 c-26 -17 -27
-30 -6 -60 15 -22 17 -22 34 -7 11 10 20 12 24 6 4 -5 -1 -14 -11 -19 -16 -9
-16 -13 -3 -37 19 -36 36 -41 60 -20 11 10 23 15 27 11 7 -7 -44 -55 -59 -56
-4 0 -34 36 -67 79 l-60 79 32 25 c18 14 36 22 41 19 5 -3 0 -12 -12 -20z
m-2217 -107 c0 -18 -9 -35 -26 -47 -24 -18 -29 -19 -55 -5 -29 15 -30 14 -52
-19 -13 -19 -27 -32 -32 -29 -5 3 16 44 47 91 l56 84 31 -24 c21 -16 31 -32
31 -51z m2185 -48 c23 -37 40 -71 36 -74 -3 -3 -33 13 -66 37 -34 23 -64 40
-67 37 -3 -3 8 -25 24 -49 42 -62 44 -66 34 -72 -5 -3 -32 30 -60 73 -72 113
-68 127 19 65 28 -20 53 -34 56 -31 3 3 -8 26 -26 51 -17 26 -28 51 -24 57 7
12 10 8 74 -94z m-2079 -10 c-5 -13 -19 -55 -30 -95 -23 -75 -41 -94 -41 -42
0 38 -28 55 -53 33 -9 -9 -20 -14 -23 -10 -3 3 22 39 57 81 52 62 66 73 80 65
14 -7 16 -15 10 -32z m1875 9 c-25 -21 -27 -26 -16 -47 17 -33 16 -32 39 -19
26 13 29 -4 4 -19 -17 -9 -17 -11 0 -45 17 -37 17 -37 47 -21 18 9 30 11 30 5
0 -11 -67 -47 -73 -39 -11 13 -87 159 -87 167 0 9 58 41 75 41 6 0 -3 -10 -19
-23z m-1757 -41 c16 -8 31 -21 35 -30 8 -21 -13 -63 -35 -70 -13 -5 -20 -20
-25 -56 -9 -66 -29 -59 -25 9 3 61 -12 68 -36 17 -9 -19 -22 -35 -29 -35 -8 0
2 33 28 90 23 50 45 90 50 90 5 0 22 -7 37 -15z m1675 -32 c50 -102 65 -143
55 -148 -9 -6 -89 150 -89 174 0 23 17 10 34 -26z m-74 -18 c6 -8 8 -19 4 -26
-5 -8 -9 -7 -16 5 -5 9 -18 16 -30 16 -18 0 -20 -5 -16 -37 8 -59 40 -118 63
-118 16 0 20 7 20 30 0 22 -4 30 -17 29 -26 -2 -22 13 4 19 26 7 24 10 43 -36
14 -33 14 -37 0 -37 -8 0 -15 -4 -15 -10 0 -17 -49 -23 -67 -9 -19 16 -63 111
-63 136 0 42 64 70 90 38z m-1452 -14 c11 -6 10 -24 -2 -97 -9 -49 -16 -92
-16 -96 0 -5 -4 -8 -10 -8 -5 0 -10 11 -10 25 0 15 -8 29 -22 36 -18 10 -24 8
-39 -12 -10 -13 -21 -21 -24 -17 -7 7 93 178 104 178 3 0 12 -4 19 -9z m1318
-88 c-1 -43 3 -91 8 -107 14 -44 -14 -29 -30 17 -7 20 -29 58 -49 84 -23 30
-32 49 -24 52 6 2 15 -3 20 -11 5 -8 17 -26 28 -39 l20 -24 1 46 c0 43 5 59
20 59 4 0 6 -35 6 -77z m-1200 -13 c3 -38 10 -67 14 -65 5 3 13 27 20 55 12
49 24 68 33 53 7 -13 -48 -188 -59 -186 -13 3 -22 40 -23 96 -1 26 -4 47 -8
47 -5 0 -16 -27 -26 -60 -9 -33 -22 -60 -27 -60 -13 0 -13 6 5 65 9 28 20 67
26 88 16 62 37 47 45 -33z m1079 -55 c17 -71 20 -95 10 -95 -7 0 -18 20 -24
44 -10 39 -13 43 -37 38 -23 -4 -25 -8 -19 -39 3 -19 9 -41 12 -49 3 -8 -1
-14 -9 -14 -15 0 -63 174 -52 191 10 17 22 0 29 -42 5 -30 11 -39 22 -35 8 3
19 6 25 6 7 0 8 15 4 41 -6 38 0 67 11 55 3 -3 16 -48 28 -101z m-874 59 c14
-17 -4 -126 -27 -161 -18 -28 -55 -30 -79 -3 -19 21 -17 52 6 133 14 53 68 69
100 31z m137 -20 c28 -19 28 -55 2 -79 -20 -18 -21 -36 -4 -97 3 -11 0 -18 -9
-18 -10 0 -18 16 -23 47 -12 62 -31 67 -39 8 -4 -25 -12 -44 -17 -43 -12 4
-12 1 -4 83 11 107 14 115 45 115 15 0 37 -7 49 -16z m98 -2 c6 -4 15 -27 19
-52 12 -75 20 -77 39 -11 13 48 21 61 37 61 17 0 19 -7 19 -77 0 -85 -7 -123
-22 -123 -6 0 -8 29 -6 70 2 39 0 70 -3 70 -4 0 -15 -31 -24 -70 -9 -38 -21
-70 -25 -70 -5 0 -14 34 -21 75 -7 41 -17 75 -21 75 -4 0 -8 -31 -8 -70 0 -40
-4 -70 -10 -70 -6 0 -10 40 -10 100 0 100 5 113 36 92z m337 -24 c3 -18 9 -59
13 -91 l7 -59 33 7 c21 3 34 2 34 -5 0 -5 -13 -10 -29 -10 -16 0 -36 -3 -44
-6 -18 -6 -24 14 -33 119 -4 50 -3 77 4 77 5 0 12 -15 15 -32z m-82 -53 c10
-38 21 -80 24 -92 4 -16 1 -23 -10 -23 -8 0 -15 9 -15 20 0 16 -7 20 -30 20
-25 0 -30 -4 -30 -25 0 -16 -6 -25 -16 -25 -10 0 -14 6 -10 18 2 9 7 44 11 77
10 94 15 106 38 103 17 -2 24 -17 38 -73z m879 10 c0 -6 -157 -85 -167 -84 -6
0 154 86 165 88 1 1 2 -1 2 -4z m-1934 -63 c-5 -4 -106 46 -106 53 0 3 25 -7
55 -22 30 -15 53 -29 51 -31z m74 -27 c14 -8 21 -14 15 -14 -5 0 -21 6 -35 14
-14 8 -20 14 -15 14 6 0 21 -6 35 -14z m1670 -5 c-8 -5 -19 -10 -25 -10 -5 0
-3 5 5 10 8 5 20 10 25 10 6 0 3 -5 -5 -10z m-1610 -20 c8 -5 11 -10 5 -10 -5
0 -17 5 -25 10 -8 5 -10 10 -5 10 6 0 17 -5 25 -10z m100 -35 c19 -7 28 -14
20 -14 -8 0 -28 6 -45 14 -39 17 -21 18 25 0z m1380 5 c-8 -5 -19 -10 -25 -10
-5 0 -3 5 5 10 8 5 20 10 25 10 6 0 3 -5 -5 -10z m-43 -16 c-3 -3 -12 -4 -19
-1 -8 3 -5 6 6 6 11 1 17 -2 13 -5z m-100 -30 c-3 -3 -12 -4 -19 -1 -8 3 -5 6
6 6 11 1 17 -2 13 -5z m-1070 -10 c-3 -3 -12 -4 -19 -1 -8 3 -5 6 6 6 11 1 17
-2 13 -5z m1030 0 c-3 -3 -12 -4 -19 -1 -8 3 -5 6 6 6 11 1 17 -2 13 -5z
m-990 -10 c-3 -3 -12 -4 -19 -1 -8 3 -5 6 6 6 11 1 17 -2 13 -5z m950 0 c-3
-3 -12 -4 -19 -1 -8 3 -5 6 6 6 11 1 17 -2 13 -5z m-900 -10 c-3 -3 -12 -4
-19 -1 -8 3 -5 6 6 6 11 1 17 -2 13 -5z m850 0 c-3 -3 -12 -4 -19 -1 -8 3 -5
6 6 6 11 1 17 -2 13 -5z m-794 -11 c-7 -2 -19 -2 -25 0 -7 3 -2 5 12 5 14 0
19 -2 13 -5z m740 0 c-7 -2 -19 -2 -25 0 -7 3 -2 5 12 5 14 0 19 -2 13 -5z
m-680 -10 c-7 -2 -19 -2 -25 0 -7 3 -2 5 12 5 14 0 19 -2 13 -5z m620 0 c-7
-2 -19 -2 -25 0 -7 3 -2 5 12 5 14 0 19 -2 13 -5z m-535 -10 c-10 -2 -26 -2
-35 0 -10 3 -2 5 17 5 19 0 27 -2 18 -5z m460 0 c-10 -2 -26 -2 -35 0 -10 3
-2 5 17 5 19 0 27 -2 18 -5z m-165 -10 c-46 -2 -120 -2 -165 0 -46 1 -9 3 82
3 91 0 128 -2 83 -3z"/>
<path d="M2360 3723 c-21 -7 -40 -34 -40 -55 0 -22 34 -58 55 -58 22 0 55 37
55 60 0 20 -33 61 -47 59 -5 0 -15 -3 -23 -6z"/>
<path d="M2182 3614 c-32 -22 -27 -73 10 -93 24 -14 28 -14 47 3 28 25 27 71
-1 90 -28 20 -28 20 -56 0z"/>
<path d="M2510 3610 c-11 -11 -20 -29 -20 -40 0 -23 33 -60 55 -60 22 0 55 37
55 60 0 23 -33 60 -55 60 -8 0 -24 -9 -35 -20z"/>
<path d="M2010 3552 c-44 -13 -53 -73 -15 -98 30 -20 58 -11 74 22 18 40 -20
89 -59 76z"/>
<path d="M2713 3549 c-40 -15 -42 -78 -2 -100 27 -14 54 -4 68 27 20 44 -21
90 -66 73z"/>
<path d="M1790 3480 c-32 -32 -25 -66 18 -89 19 -10 26 -8 47 13 14 14 25 32
25 41 0 19 -35 55 -55 55 -8 0 -24 -9 -35 -20z"/>
<path d="M2897 3482 c-20 -22 -22 -63 -5 -80 7 -7 24 -12 38 -12 33 0 50 17
50 51 0 52 -51 77 -83 41z"/>
<path d="M1582 3448 c-17 -17 -15 -64 4 -82 33 -34 84 -8 84 43 0 34 -17 51
-50 51 -14 0 -31 -5 -38 -12z"/>
<path d="M3093 3434 c-15 -24 -15 -29 -2 -53 20 -35 62 -40 83 -9 21 29 20 51
-2 71 -27 25 -59 21 -79 -9z"/>
<path d="M1387 3412 c-21 -23 -21 -41 -1 -70 21 -31 63 -26 83 9 13 24 13 29
-2 53 -21 31 -56 34 -80 8z"/>
<path d="M3296 3414 c-34 -33 -9 -94 38 -94 31 0 46 18 46 55 0 17 -5 36 -12
43 -17 17 -54 15 -72 -4z"/>
<path d="M1423 3214 c-15 -24 -15 -29 -2 -53 20 -35 62 -40 83 -9 21 29 20 51
-2 71 -27 25 -59 21 -79 -9z"/>
<path d="M3252 3228 c-17 -17 -15 -64 4 -82 33 -34 84 -8 84 43 0 34 -17 51
-50 51 -14 0 -31 -5 -38 -12z"/>
<path d="M1446 3034 c-33 -33 -12 -94 32 -94 37 0 52 17 52 57 0 48 -51 71
-84 37z"/>
<path d="M3233 3024 c-15 -24 -15 -29 -2 -53 11 -19 23 -26 44 -26 21 0 33 7
44 26 13 24 13 29 -2 53 -11 16 -27 26 -42 26 -15 0 -31 -10 -42 -26z"/>
<path d="M1454 2852 c-36 -24 -34 -81 5 -101 54 -29 99 58 49 93 -25 18 -37
19 -54 8z"/>
<path d="M3247 2842 c-24 -26 -21 -68 5 -86 29 -20 34 -20 58 4 27 27 26 65
-2 84 -29 21 -41 20 -61 -2z"/>
<path d="M1420 2641 c-14 -28 -13 -46 8 -71 41 -50 113 11 78 65 -21 31 -70
35 -86 6z"/>
<path d="M3250 2641 c-15 -30 -12 -56 10 -76 32 -29 74 -10 78 33 2 18 -2 40
-9 48 -17 21 -66 18 -79 -5z"/>
<path d="M1413 2458 c-21 -27 -23 -51 -8 -74 28 -43 95 -22 95 30 0 43 -63 75
-87 44z"/>
<path d="M3278 2459 c-21 -12 -24 -69 -6 -87 7 -7 24 -12 40 -12 45 0 65 61
30 93 -21 19 -39 21 -64 6z"/>
<path d="M1406 2264 c-25 -24 -24 -58 1 -86 21 -23 38 -23 63 2 27 27 26 65
-2 84 -28 20 -43 20 -62 0z"/>
<path d="M3287 2262 c-25 -28 -21 -69 8 -88 23 -15 27 -15 50 0 33 21 34 68 3
90 -29 21 -41 20 -61 -2z"/>
<path d="M1405 2056 c-34 -51 30 -111 75 -71 22 20 25 46 10 76 -15 28 -65 25
-85 -5z"/>
<path d="M1462 1884 c-26 -18 -30 -65 -6 -88 19 -20 34 -20 62 0 28 19 29 57
2 84 -24 24 -29 24 -58 4z"/>
<path d="M2144 3293 c-27 -20 -51 -38 -53 -40 -2 -2 -1 -6 2 -9 6 -6 117 71
117 81 0 12 -21 2 -66 -32z"/>
<path d="M2522 3289 c-30 -23 -51 -47 -48 -54 2 -7 -1 -18 -7 -24 -6 -6 -8
-13 -5 -16 4 -4 57 32 117 82 2 1 2 6 -2 9 -3 4 -24 -8 -47 -26 -23 -18 -43
-30 -46 -27 -3 2 18 21 46 42 27 20 50 41 50 46 0 13 1 13 -58 -32z"/>
<path d="M2149 3260 c-30 -23 -56 -46 -58 -52 -4 -13 11 -4 62 35 21 16 40 27
43 25 2 -3 -21 -25 -53 -48 -32 -24 -60 -45 -62 -47 -2 -1 -2 -6 2 -9 3 -3 33
15 65 40 47 36 60 51 58 71 0 14 -1 25 -2 25 0 0 -25 -18 -55 -40z"/>
<path d="M2513 3211 c-34 -27 -60 -51 -56 -54 6 -6 117 75 128 93 13 21 -12 7
-72 -39z"/>
<path d="M2142 3184 c-34 -25 -62 -50 -62 -56 0 -5 6 -6 13 -2 23 14 127 95
127 100 0 12 -22 0 -78 -42z"/>
<path d="M2517 3178 c-37 -27 -67 -54 -67 -60 0 -9 51 25 115 76 58 47 19 34
-48 -16z"/>
<path d="M2144 3148 c-38 -28 -71 -53 -73 -55 -2 -1 -2 -6 1 -9 7 -7 148 97
148 108 0 13 -3 11 -76 -44z"/>
<path d="M2510 3139 c-60 -47 -81 -69 -65 -69 10 0 144 104 145 113 0 14 -16
5 -80 -44z"/>
<path d="M2145 3115 c-38 -30 -71 -59 -74 -66 -2 -8 1 -9 10 -4 24 15 149 116
149 120 0 12 -20 0 -85 -50z"/>
<path d="M2515 3105 c-38 -30 -72 -60 -74 -66 -4 -14 73 40 128 88 59 52 22
37 -54 -22z"/>
<path d="M2143 3076 c-45 -35 -80 -66 -76 -69 7 -8 163 111 163 123 0 14 4 16
-87 -54z"/>
<path d="M2515 3069 c-71 -54 -98 -79 -81 -79 10 0 166 123 166 132 0 12 3 13
-85 -53z"/>
<path d="M2148 3044 c-49 -37 -88 -71 -88 -76 0 -6 15 1 33 14 17 13 58 44 90
67 31 24 57 47 57 52 0 13 4 15 -92 -57z"/>
<path d="M2564 3072 c-11 -9 -49 -39 -83 -65 -35 -27 -60 -51 -57 -54 6 -7
176 118 176 129 0 12 -13 9 -36 -10z"/>
<path d="M2138 3002 c-48 -36 -85 -69 -82 -73 5 -8 183 121 183 134 2 15 -16
4 -101 -61z"/>
<path d="M2510 2994 c-47 -36 -87 -70 -89 -76 -5 -14 10 -5 107 67 74 54 95
76 75 74 -5 0 -46 -29 -93 -65z"/>
<path d="M2145 2970 c-49 -38 -92 -75 -94 -82 -3 -10 -1 -10 10 -2 8 6 51 38
96 72 79 60 103 83 86 81 -4 0 -48 -31 -98 -69z"/>
<path d="M2525 2969 c-44 -33 -89 -67 -99 -75 -11 -7 -17 -17 -13 -20 4 -4 16
1 27 11 11 10 22 16 25 13 3 -3 -11 -18 -30 -33 -46 -34 -37 -46 10 -14 24 16
34 30 31 41 -3 12 16 33 65 69 38 28 69 55 69 60 0 13 3 15 -85 -52z"/>
<path d="M2142 2932 c-56 -42 -98 -78 -93 -80 12 -4 201 137 201 149 0 13 5
16 -108 -69z"/>
<path d="M2577 2973 c-35 -24 -47 -43 -29 -43 9 0 72 56 72 64 0 9 -3 8 -43
-21z"/>
<path d="M2223 2958 c-22 -16 -32 -30 -30 -45 1 -13 6 -23 12 -23 15 1 59 40
51 47 -3 3 -15 -2 -26 -12 -11 -10 -23 -16 -26 -13 -3 3 6 14 18 24 22 17 44
44 36 44 -2 0 -18 -10 -35 -22z"/>
<path d="M2570 2930 c-19 -16 -31 -30 -26 -30 13 0 76 43 76 53 0 13 -15 7
-50 -23z"/>
<path d="M2583 2905 c-20 -16 -30 -33 -30 -50 0 -32 4 -31 47 4 39 33 37 52
-3 21 -40 -31 -46 -23 -7 9 43 36 37 50 -7 16z"/>
<path d="M2225 2886 c-16 -13 -27 -27 -24 -30 3 -3 21 8 40 24 41 35 27 40
-16 6z"/>
<path d="M2078 2849 c-21 -17 -38 -35 -38 -41 0 -12 78 43 84 60 8 19 -6 14
-46 -19z"/>
<path d="M2234 2856 c-38 -32 -27 -42 11 -11 17 13 27 26 24 30 -4 3 -20 -5
-35 -19z"/>
<path d="M2585 2835 c-16 -13 -27 -26 -24 -29 6 -6 69 36 69 47 0 13 -14 7
-45 -18z"/>
<path d="M2243 2828 c-32 -23 -42 -38 -24 -38 5 0 14 7 21 15 7 8 18 15 24 15
6 0 -5 -14 -24 -30 -39 -33 -28 -42 12 -10 15 12 26 30 26 45 0 14 -1 25 -2
25 -1 0 -16 -10 -33 -22z"/>
<path d="M2432 2827 c-30 -21 -41 -37 -24 -37 12 1 67 49 61 54 -3 3 -19 -5
-37 -17z"/>
<path d="M2076 2810 c-50 -38 -52 -40 -35 -40 17 1 86 56 79 63 -3 3 -23 -8
-44 -23z"/>
<path d="M2593 2804 c-20 -16 -32 -32 -30 -44 5 -30 10 -30 47 0 39 32 37 51
-3 20 -43 -34 -45 -22 -2 15 46 40 36 47 -12 9z"/>
<path d="M2420 2780 c-19 -16 -29 -29 -23 -30 7 0 27 13 45 30 43 38 23 39
-22 0z"/>
<path d="M2068 2769 c-53 -43 -47 -57 7 -18 25 18 45 36 45 41 0 14 -14 8 -52
-23z"/>
<path d="M2243 2756 c-15 -13 -25 -27 -22 -30 3 -3 21 8 40 24 19 16 29 29 22
30 -7 0 -25 -11 -40 -24z"/>
<path d="M2415 2745 c-16 -13 -26 -27 -23 -30 7 -8 68 35 68 47 0 14 -14 8
-45 -17z"/>
<path d="M2064 2729 c-50 -40 -50 -39 -33 -39 18 1 86 56 78 64 -3 4 -23 -8
-45 -25z"/>
<path d="M2595 2735 c-16 -13 -27 -26 -24 -29 6 -6 69 36 69 47 0 13 -14 7
-45 -18z"/>
<path d="M2251 2726 c-18 -13 -29 -26 -24 -29 10 -6 70 40 62 47 -3 3 -20 -5
-38 -18z"/>
<path d="M2412 2703 c-18 -14 -31 -31 -28 -38 2 -7 -1 -18 -7 -24 -8 -8 -7
-11 4 -11 19 1 75 47 66 56 -4 4 -15 0 -25 -9 -10 -10 -23 -17 -28 -17 -5 0 7
14 26 29 44 37 36 49 -8 14z"/>
<path d="M2600 2700 c-19 -16 -29 -29 -23 -30 7 0 27 13 45 30 43 38 23 39
-22 0z"/>
<path d="M2055 2686 c-22 -19 -37 -38 -33 -42 4 -4 3 -13 -3 -21 -21 -25 14
-14 51 16 40 34 37 52 -4 20 -15 -12 -29 -19 -32 -16 -3 3 13 18 35 33 38 27
51 44 34 44 -5 0 -26 -16 -48 -34z"/>
<path d="M2255 2695 c-16 -13 -26 -27 -23 -31 7 -7 67 36 67 49 1 13 -13 7
-44 -18z"/>
<path d="M2613 2677 c-23 -16 -31 -30 -31 -49 1 -22 4 -25 17 -18 19 10 61 49
61 56 0 7 -38 -15 -45 -26 -3 -6 -12 -10 -18 -10 -7 0 4 14 23 29 42 36 37 49
-7 18z"/>
<path d="M2265 2665 c-17 -13 -27 -26 -24 -30 4 -3 20 5 35 19 38 32 27 42
-11 11z"/>
<path d="M2271 2632 c-26 -22 -31 -31 -24 -49 l8 -21 30 23 c16 13 26 27 22
31 -4 4 -15 0 -25 -9 -10 -10 -23 -17 -28 -17 -5 0 7 14 26 29 19 16 32 32 29
35 -3 3 -20 -7 -38 -22z"/>
<path d="M2402 2623 c-18 -14 -31 -31 -28 -39 3 -8 -18 -30 -54 -56 -55 -40
-71 -58 -52 -58 13 0 174 131 168 137 -3 4 -14 -1 -24 -10 -10 -10 -23 -17
-28 -17 -5 0 7 14 26 29 44 37 36 49 -8 14z"/>
<path d="M2048 2612 c-21 -15 -37 -34 -36 -42 2 -8 -1 -21 -5 -27 -12 -20 7
-15 37 8 15 12 29 19 32 17 2 -3 -12 -18 -33 -33 -21 -16 -40 -30 -42 -32 -2
-2 -2 -6 2 -9 3 -3 24 7 46 22 30 22 39 36 39 56 -1 28 -8 28 -41 0 -9 -8 -20
-13 -23 -10 -3 3 13 19 35 34 37 27 52 45 34 43 -5 0 -25 -13 -45 -27z"/>
<path d="M2610 2600 c-19 -16 -31 -29 -26 -30 13 0 76 43 76 53 0 14 -16 7
-50 -23z"/>
<path d="M2623 2576 c-35 -30 -45 -83 -12 -66 10 6 21 15 24 20 3 6 12 10 18
10 7 0 -4 -14 -23 -29 -42 -36 -37 -49 7 -18 23 16 31 30 31 49 -1 23 -4 26
-19 17 -10 -5 -21 -14 -24 -19 -3 -6 -12 -10 -18 -10 -7 0 4 14 23 29 19 16
32 32 29 36 -4 3 -20 -6 -36 -19z"/>
<path d="M2275 2566 c-16 -13 -28 -27 -24 -30 6 -6 69 35 69 47 0 13 -14 7
-45 -17z"/>
<path d="M2349 2514 c-41 -31 -76 -58 -78 -60 -2 -2 -2 -7 2 -10 3 -3 33 15
67 41 34 26 63 45 66 42 3 -2 -27 -28 -66 -57 -38 -28 -70 -57 -70 -62 0 -7 4
-7 13 -1 6 5 40 31 75 57 36 28 61 54 58 61 -2 7 1 18 7 24 6 6 8 13 5 16 -3
3 -38 -20 -79 -51z"/>
<path d="M2285 2535 c-17 -13 -28 -26 -25 -29 3 -3 19 6 35 19 17 13 28 26 25
29 -3 3 -19 -6 -35 -19z"/>
<path d="M2045 2499 c-44 -33 -61 -58 -27 -40 12 6 24 16 27 21 3 6 12 10 18
10 11 -1 -15 -26 -57 -56 -11 -7 -17 -16 -13 -20 10 -10 89 57 83 71 -2 7 1
18 7 24 24 24 -1 18 -38 -10z"/>
<path d="M2632 2475 c-34 -29 -43 -82 -11 -65 10 6 21 15 24 20 3 6 12 10 18
10 7 0 -4 -14 -23 -29 -42 -36 -37 -49 7 -18 23 16 31 30 31 49 -1 23 -4 26
-19 17 -10 -5 -21 -14 -24 -19 -3 -6 -12 -10 -18 -10 -7 0 6 16 28 35 22 19
35 34 28 35 -6 0 -25 -11 -41 -25z"/>
<path d="M2346 2440 c-36 -28 -66 -55 -66 -61 0 -14 118 73 134 99 12 20 2 14
-68 -38z"/>
<path d="M2032 2419 c-23 -17 -42 -35 -42 -40 0 -11 36 6 45 21 3 6 12 10 18
10 11 -1 -15 -26 -57 -56 -11 -7 -17 -16 -13 -20 10 -10 89 57 83 71 -2 7 1
18 7 24 25 25 -2 18 -41 -10z"/>
<path d="M2369 2422 c-77 -59 -92 -73 -86 -78 7 -8 127 84 127 97 0 12 0 12
-41 -19z"/>
<path d="M2340 2364 c-43 -34 -69 -66 -38 -48 37 23 98 70 98 77 0 13 -15 6
-60 -29z"/>
<path d="M2641 2373 c-23 -20 -30 -33 -26 -45 9 -23 14 -22 50 7 35 29 29 44
-8 15 -43 -34 -45 -22 -2 15 22 19 35 34 30 35 -6 0 -26 -12 -44 -27z"/>
<path d="M2022 2339 c-23 -17 -42 -35 -42 -40 0 -12 24 1 65 35 43 37 25 41
-23 5z"/>
<path d="M2336 2325 c-25 -20 -46 -40 -46 -46 0 -10 82 45 102 68 20 25 -9 13
-56 -22z"/>
<path d="M2650 2311 c-40 -34 -37 -52 4 -20 15 12 29 19 32 16 3 -3 -9 -15
-25 -27 -17 -12 -31 -26 -31 -32 0 -6 15 1 33 14 21 17 32 34 32 52 1 32 -2
32 -45 -3z"/>
<path d="M2015 2299 c-39 -29 -55 -49 -38 -49 12 0 100 79 88 79 -5 0 -28 -13
-50 -30z"/>
<path d="M2350 2299 c-14 -12 -34 -27 -44 -35 -11 -7 -17 -16 -14 -20 7 -6 97
57 98 69 0 12 -14 7 -40 -14z"/>
<path d="M2012 2259 c-23 -17 -42 -35 -42 -40 0 -6 20 4 45 22 25 18 45 36 45
41 0 12 -2 11 -48 -23z"/>
<path d="M2344 2256 c-38 -32 -28 -41 11 -11 16 13 27 27 23 30 -3 3 -19 -5
-34 -19z"/>
<path d="M2673 2255 c-20 -16 -30 -33 -30 -50 0 -14 2 -25 6 -25 14 1 65 50
58 56 -4 4 -15 0 -25 -9 -10 -10 -23 -17 -28 -17 -5 0 7 14 26 29 43 36 37 50
-7 16z"/>
<path d="M2005 2219 c-39 -29 -55 -49 -38 -49 12 0 100 79 88 79 -5 0 -28 -13
-50 -30z"/>
<path d="M2365 2239 c-4 -6 -5 -13 -2 -16 7 -7 27 6 27 18 0 12 -17 12 -25 -2z"/>
<path d="M2002 2179 c-23 -17 -42 -35 -42 -40 0 -6 20 4 45 22 25 18 45 36 45
41 0 12 -2 11 -48 -23z"/>
<path d="M2675 2185 c-35 -29 -29 -44 8 -15 40 31 46 23 7 -10 -19 -16 -30
-30 -23 -30 23 0 65 44 58 63 -9 22 -14 21 -50 -8z"/>
<path d="M1995 2139 c-39 -29 -55 -49 -38 -49 12 0 100 79 88 79 -5 0 -28 -13
-50 -30z"/>
<path d="M2705 2135 c-17 -13 -27 -26 -24 -30 4 -3 20 5 35 19 38 32 27 42
-11 11z"/>
<path d="M1994 2103 c-27 -20 -51 -38 -53 -40 -2 -2 -2 -6 2 -9 7 -8 107 64
107 77 0 14 -3 12 -56 -28z"/>
<path d="M2715 2106 c-16 -13 -27 -27 -24 -30 3 -3 21 8 40 24 41 35 27 40
-16 6z"/>
<path d="M2026 2091 c-19 -21 -12 -28 13 -12 7 5 12 14 9 21 -2 7 -10 4 -22
-9z"/>
<path d="M2735 2085 c-17 -13 -27 -26 -24 -30 4 -3 20 5 35 19 38 32 27 42
-11 11z"/>
<path d="M2744 2056 c-16 -14 -24 -26 -18 -26 17 0 60 37 53 45 -4 3 -20 -5
-35 -19z"/>
<path d="M2765 2035 c-17 -13 -25 -24 -19 -25 15 0 61 37 54 44 -3 3 -19 -6
-35 -19z"/>
<path d="M2790 2020 c-14 -10 -21 -22 -17 -26 4 -4 17 2 29 14 28 28 20 36
-12 12z"/>
<path d="M2953 1999 c-29 -22 -53 -44 -53 -50 0 -11 80 43 107 73 28 31 1 20
-54 -23z"/>
<path d="M2810 2000 c-14 -10 -22 -22 -18 -25 7 -8 57 25 58 38 0 12 -14 8
-40 -13z"/>
<path d="M2844 1986 c-16 -14 -24 -25 -19 -25 15 -1 61 37 54 44 -4 3 -20 -5
-35 -19z"/>
<path d="M2980 1981 c-19 -16 -33 -31 -30 -34 3 -3 23 10 45 28 22 19 35 34
30 35 -6 0 -26 -13 -45 -29z"/>
<path d="M3420 1911 c0 -10 90 -24 99 -15 3 3 -1 9 -9 14 -19 12 -90 13 -90 1z"/>
<path d="M3415 1881 c-6 -10 -24 -185 -25 -239 l0 -32 58 6 c67 8 58 4 66 32
7 20 4 22 -34 22 l-40 0 6 110 c6 97 5 110 -9 110 -9 0 -18 -4 -22 -9z"/>
<path d="M3301 1871 c-21 -6 -28 -21 -57 -126 -35 -125 -40 -155 -26 -155 16
0 40 25 44 45 2 13 12 21 31 23 23 3 27 0 27 -22 0 -21 5 -26 25 -26 14 0 25
1 25 3 0 30 -33 254 -38 258 -4 3 -18 3 -31 0z m9 -137 c0 -15 -6 -24 -16 -24
-11 0 -14 5 -10 16 3 9 6 22 6 30 0 9 5 12 10 9 6 -3 10 -17 10 -31z"/>
<path d="M3115 1851 c-18 -7 -21 -22 -30 -135 -6 -70 -7 -130 -3 -132 4 -2 32
-1 62 2 50 6 56 9 56 30 0 21 -5 24 -35 24 -32 0 -35 2 -35 29 0 25 4 30 28
33 21 2 28 9 30 31 3 27 2 29 -27 22 -29 -6 -29 -5 -22 22 6 22 14 29 42 33
26 4 35 10 37 28 3 20 -1 22 -40 21 -24 0 -52 -4 -63 -8z"/>
<path d="M2749 1794 c-53 -17 -52 -13 -65 -191 -6 -81 -4 -93 9 -93 22 0 31
18 37 75 4 42 8 50 30 55 18 4 26 13 28 33 3 25 1 27 -22 21 -23 -5 -26 -3
-26 20 0 21 7 27 40 36 33 9 40 15 40 35 0 28 -6 29 -71 9z"/>
<path d="M2560 1733 c-28 -25 -32 -37 -40 -115 -13 -110 -4 -138 42 -138 63 1
86 35 98 143 12 107 4 137 -40 137 -18 0 -41 -10 -60 -27z m52 -103 c-2 -75
-13 -100 -40 -100 -12 0 -14 12 -8 77 7 77 19 107 40 100 7 -3 10 -31 8 -77z"/>
<path d="M2383 1704 c-6 -3 -20 -29 -29 -57 l-18 -52 -13 47 c-13 42 -16 46
-36 39 -24 -9 -25 -27 -1 -93 8 -22 14 -69 14 -104 0 -56 2 -64 19 -64 20 0
31 26 31 77 0 17 16 68 35 113 19 45 35 86 35 91 0 9 -17 11 -37 3z"/>
<path d="M1748 1653 c-21 -2 -38 -8 -38 -14 0 -10 63 -12 98 -3 12 4 22 10 22
15 0 9 -11 9 -82 2z"/>
<path d="M2144 1649 l-31 -9 -10 -132 c-6 -73 -10 -135 -8 -136 2 -2 13 -1 24
3 15 5 21 15 21 38 0 42 10 77 21 77 5 0 9 -6 9 -12 0 -7 5 -29 10 -50 8 -29
14 -35 30 -31 23 6 24 21 9 76 -9 33 -8 42 8 59 12 13 18 36 18 64 0 62 -25
75 -101 53z m54 -70 c-3 -23 -33 -48 -44 -37 -3 4 -4 19 0 33 8 33 49 36 44 4z"/>
<path d="M1535 1630 c-33 -4 -93 -8 -132 -9 -48 -1 -73 -5 -73 -12 0 -9 35
-10 128 -6 136 7 182 14 182 28 0 10 -16 10 -105 -1z"/>
<path d="M2000 1631 c-40 -5 -45 -9 -45 -31 0 -20 4 -25 23 -22 23 2 23 1 17
-65 -3 -38 -8 -87 -11 -110 -5 -40 -4 -43 19 -43 24 0 25 3 32 88 9 131 13
142 41 142 19 0 24 5 24 25 0 27 -7 28 -100 16z"/>
<path d="M1841 1606 c-27 -15 -50 -52 -51 -80 0 -11 21 -38 46 -62 31 -28 45
-48 41 -58 -9 -22 -48 -20 -54 3 -3 13 -11 17 -24 14 -23 -6 -26 -55 -4 -73
34 -28 104 -7 124 37 19 42 12 64 -35 108 -27 24 -44 47 -40 54 10 16 34 14
44 -5 7 -13 13 -14 31 -5 27 15 27 26 -4 56 -27 28 -40 30 -74 11z"/>
<path d="M1739 1590 c-13 -8 -18 -34 -24 -130 -9 -143 -9 -135 12 -135 11 0
19 11 24 33 12 58 21 242 12 242 -4 0 -15 -5 -24 -10z"/>
<path d="M1668 1583 c-12 -3 -18 -22 -23 -76 l-8 -72 -22 65 c-16 49 -27 66
-42 68 -26 4 -30 -11 -39 -160 -6 -114 -6 -117 13 -112 21 6 32 48 34 128 0
25 6 16 26 -41 18 -55 29 -73 43 -73 10 0 20 6 23 14 6 16 21 266 16 265 -2
-1 -11 -3 -21 -6z"/>
<path d="M3130 1568 c-90 -13 -106 -33 -20 -24 36 3 109 9 163 13 53 3 97 10
97 15 0 10 -155 8 -240 -4z"/>
<path d="M1467 1503 c-4 -32 -9 -96 -13 -142 -6 -77 -5 -84 10 -78 10 4 21 7
26 7 6 0 21 154 25 255 0 6 -10 11 -21 13 -19 3 -22 -3 -27 -55z"/>
<path d="M2883 1543 c-28 -5 -31 -23 -4 -23 42 0 111 13 111 21 0 9 -66 10
-107 2z"/>
<path d="M2874 1405 c-19 -29 -11 -60 18 -76 46 -24 94 32 68 80 -16 30 -65
28 -86 -4z"/>
<path d="M2697 1332 c-33 -36 -13 -92 31 -92 37 0 52 17 52 57 0 49 -51 71
-83 35z"/>
<path d="M2170 1240 c-23 -23 -26 -49 -7 -72 23 -28 47 -29 73 -3 27 27 26 59
-4 83 -22 17 -39 15 -62 -8z"/>
<path d="M2522 1244 c-36 -25 -24 -82 21 -98 27 -9 70 38 62 67 -7 24 -32 47
-50 47 -6 0 -21 -7 -33 -16z"/>
<path d="M2340 1145 c-29 -35 -7 -95 36 -95 49 0 72 61 36 93 -23 21 -56 22
-72 2z"/>
<path d="M1290 899 c-23 -31 -23 -32 -5 -45 26 -19 32 -18 51 12 16 24 16 26
-3 46 l-20 20 -23 -33z"/>
<path d="M1406 794 c-22 -28 -25 -38 -16 -49 7 -8 16 -15 20 -15 8 0 35 88 29
95 -3 2 -17 -12 -33 -31z"/>
<path d="M1550 764 c-6 -15 -13 -31 -16 -35 -2 -4 4 -13 15 -18 15 -8 23 -7
35 5 22 21 20 51 -4 64 -17 9 -22 7 -30 -16z"/>
<path d="M1691 664 c-12 -19 -21 -39 -21 -44 0 -8 30 -23 35 -18 5 6 16 98 12
98 -3 0 -14 -16 -26 -36z"/>
<path d="M1990 621 c-6 -12 -13 -50 -17 -86 -6 -62 -5 -65 16 -65 27 0 42 36
44 110 2 44 -1 55 -15 58 -9 2 -22 -6 -28 -17z"/>
<path d="M2137 578 c-6 -40 7 -57 31 -42 26 17 23 68 -4 72 -18 2 -23 -3 -27
-30z"/>
<path d="M2507 566 c-4 -10 -7 -33 -7 -52 0 -27 4 -34 20 -34 21 0 21 0 0 80
-5 21 -7 22 -13 6z"/>
</g>
</svg>
